<svg xmlns="http://www.w3.org/2000/svg" xmlns:xlink="http://www.w3.org/1999/xlink" width="16" height="16" viewBox="0 0 16 16"><defs><path id="eh6la" d="M1390 39.63a.77.77 0 0 1-.25.68l-2.25 2.23a1.65 1.65 0 0 1-1.2.46 7.82 7.82 0 0 1-2.8-.65 14.8 14.8 0 0 1-2.37-1.3 17.62 17.62 0 0 1-2.8-2.37 18.58 18.58 0 0 1-1.97-2.24c-.52-.71-.94-1.37-1.26-1.97a10.63 10.63 0 0 1-1.03-2.92 4.2 4.2 0 0 1-.05-1.18 1.65 1.65 0 0 1 .44-.88l2.25-2.25a.75.75 0 0 1 .55-.24c.14 0 .27.04.39.13.1.08.2.19.28.31l1.82 3.44c.1.18.13.38.08.6-.05.2-.14.39-.29.54l-.83.83a.28.28 0 0 0-.06.1.42.42 0 0 0-.02.13c.04.24.14.51.3.82.14.27.35.6.63.99s.68.84 1.2 1.35c.51.52.96.92 1.36 1.2.4.3.72.5.99.64.26.14.47.22.6.25l.22.04a.4.4 0 0 0 .1-.02.28.28 0 0 0 .12-.06l.96-.99c.2-.18.44-.27.72-.27.19 0 .34.04.45.1h.02l3.27 1.94c.24.14.38.33.42.56z"/></defs><g><g transform="translate(-1374 -27)"><use fill="#334f95" xlink:href="#eh6la"/></g></g></svg>